<!-- <svg width="24" height="24" viewBox="0 0 24 24" fill="none" xmlns="http://www.w3.org/2000/svg">
<path d="M21 12C21 14.3869 20.0518 16.6761 18.364 18.364C16.6761 20.0518 14.3869 21 12 21M21 12C21 9.61305 20.0518 7.32387 18.364 5.63604C16.6761 3.94821 14.3869 3 12 3M21 12H3M12 21C9.61305 21 7.32387 20.0518 5.63604 18.364C3.94821 16.6761 3 14.3869 3 12M12 21C13.657 21 15 16.97 15 12C15 7.03 13.657 3 12 3M12 21C10.343 21 9 16.97 9 12C9 7.03 10.343 3 12 3M12 3C9.61305 3 7.32387 3.94821 5.63604 5.63604C3.94821 7.32387 3 9.61305 3 12" stroke="white" stroke-width="1.5" stroke-linecap="round" stroke-linejoin="round"/>
</svg> -->

<svg
  version="1.0"
  id="Layer_1"
  xmlns="http://www.w3.org/2000/svg"
  xmlns:xlink="http://www.w3.org/1999/xlink"
  viewBox="0 0 64 64"
  xml:space="preserve"
  width="64px"
  height="64px"
>
  <circle cx="32" cy="32" r="32" fill="#F0D9B5" />
  <circle cx="32" cy="30" r="10" fill="#FFFFFF" />
  <circle cx="26" cy="28" r="2" fill="#000000" />
  <circle cx="38" cy="28" r="2" fill="#000000" />
  <path
    d="M28,35 C30,38 34,38 36,35"
    stroke="#000000"
    stroke-width="2"
    fill="none"
  />
  <path
    d="M32,40 Q28,44 24,40"
    stroke="#000000"
    stroke-width="2"
    fill="none"
  />
  <path
    d="M32,40 Q36,44 40,40"
    stroke="#000000"
    stroke-width="2"
    fill="none"
  />
  <path
    d="M22,18 C22,10 42,10 42,18"
    fill="#FFFFFF"
    stroke="#000000"
    stroke-width="2"
  />
  <path
    d="M28,20 C28,16 36,16 36,20"
    fill="#F0D9B5"
    stroke="#000000"
    stroke-width="2"
  />
  <circle cx="32" cy="18" r="4" fill="#F0D9B5" />
</svg>
